<?xml version="1.0" encoding="UTF-8" standalone="no"?>
<svg
   xmlns:dc="http://purl.org/dc/elements/1.1/"
   xmlns:cc="http://creativecommons.org/ns#"
   xmlns:rdf="http://www.w3.org/1999/02/22-rdf-syntax-ns#"
   xmlns:svg="http://www.w3.org/2000/svg"
   xmlns="http://www.w3.org/2000/svg"
   id="svg8"
   version="1.1"
   viewBox="0 0 285.75001 285.75001"
   height="1080"
   width="1080">
  <defs
     id="defs2">
    <marker
       orient="auto"
       refY="0"
       refX="0"
       id="Arrow1Mend"
       style="overflow:visible">
      <path
         id="path5322"
         d="M 0,0 5,-5 -12.5,0 5,5 Z"
         style="fill:#fa8f00;fill-opacity:1;fill-rule:evenodd;stroke:#fa8f00;stroke-width:1.00000003pt;stroke-opacity:1"
         transform="matrix(-0.4,0,0,-0.4,-4,0)" />
    </marker>
    <marker
       orient="auto"
       refY="0"
       refX="0"
       id="Arrow1Mend-4"
       style="overflow:visible">
      <path
         id="path5322-5"
         d="M 0,0 5,-5 -12.5,0 5,5 Z"
         style="fill:#fa8f00;fill-opacity:1;fill-rule:evenodd;stroke:#fa8f00;stroke-width:1.00000003pt;stroke-opacity:1"
         transform="matrix(-0.4,0,0,-0.4,-4,0)" />
    </marker>
  </defs>
  <metadata
     id="metadata5">
    <rdf:RDF>
      <cc:Work
         rdf:about="">
        <dc:format>image/svg+xml</dc:format>
        <dc:type
           rdf:resource="http://purl.org/dc/dcmitype/StillImage" />
        <dc:title></dc:title>
      </cc:Work>
    </rdf:RDF>
  </metadata>
  <rect
     y="-0.0035707499"
     x="0.0084436871"
     height="285.75"
     width="285.75"
     id="rect7624"
     style="fill:#c9ebfb;fill-opacity:1;stroke:none;stroke-width:18.2091732;stroke-linecap:round;stroke-miterlimit:4;stroke-dasharray:none;stroke-opacity:1;paint-order:markers stroke fill" />
  <g
     id="g1401"
     transform="matrix(0.58208335,0,0,0.58208335,19.350007,23.335477)">
    <path
       id="path1397"
       stroke-miterlimit="1"
       d="m 210.5,210.5 v -99"
       style="fill-opacity:0;stroke:#006ca9;stroke-width:6;stroke-linecap:round;stroke-miterlimit:1" />
    <path
       id="path1399"
       d="m 216.5,111.5 -6,-16 -6,16 z"
       style="fill:#006ca9;fill-opacity:1;stroke:#006ca9;stroke-width:6;stroke-opacity:1" />
  </g>
  <g
     id="g1407"
     transform="matrix(0.58208335,0,0,0.58208335,19.350007,23.335477)">
    <path
       id="path1403"
       d="m 210.5,390.5 c -99.411,0 -180,-80.589 -180,-180 0,-99.411 80.589,-180 180,-180 99.411,0 180,80.589 180,180 0,99.411 -80.589,180 -180,180 z m -0.005,-60 c 66.272,0 119.996,-53.726 119.996,-120 0,-66.274 -53.724,-120 -119.996,-120 -66.272,0 -119.996,53.726 -119.996,120 0,66.274 53.724,120 119.996,120 z"
       style="fill:#ebeded" />
    <path
       id="path1405"
       d="m 210.5,390.5 c -99.411,0 -180,-80.589 -180,-180 0,-99.411 80.589,-180 180,-180 99.411,0 180,80.589 180,180 0,99.411 -80.589,180 -180,180 z m -0.005,-60 c 66.272,0 119.996,-53.726 119.996,-120 0,-66.274 -53.724,-120 -119.996,-120 -66.272,0 -119.996,53.726 -119.996,120 0,66.274 53.724,120 119.996,120 z"
       style="fill-opacity:0;stroke:#294270;stroke-width:2" />
  </g>
  <g
     id="g1413"
     transform="matrix(0.58208335,0,0,0.58208335,19.350007,23.335477)">
    <path
       id="path1409"
       d="m 60.5,240.5 c -16.569,0 -30,-13.431 -30,-30 0,-16.569 13.431,-30 30,-30 16.569,0 30,13.431 30,30 0,16.569 -13.431,30 -30,30 z"
       style="fill:#faba00" />
    <path
       id="path1411"
       d="m 60.5,240.5 c -16.569,0 -30,-13.431 -30,-30 0,-16.569 13.431,-30 30,-30 16.569,0 30,13.431 30,30 0,16.569 -13.431,30 -30,30 z"
       style="fill-opacity:0;stroke:#294270;stroke-width:2" />
  </g>
  <g
     id="g1419"
     transform="matrix(0.58208335,0,0,0.58208335,19.350007,23.335477)">
    <path
       id="path1415"
       d="m 311.481,95.596 c -8.284,14.349 -26.632,19.265 -40.981,10.981 -14.349,-8.284 -19.265,-26.632 -10.981,-40.981 8.284,-14.349 26.632,-19.265 40.981,-10.981 14.349,8.285 19.265,26.632 10.981,40.981 z"
       style="fill:#faba00" />
    <path
       id="path1417"
       d="m 311.481,95.596 c -8.284,14.349 -26.632,19.265 -40.981,10.981 -14.349,-8.284 -19.265,-26.632 -10.981,-40.981 8.284,-14.349 26.632,-19.265 40.981,-10.981 14.349,8.285 19.265,26.632 10.981,40.981 z"
       style="fill-opacity:0;stroke:#294270;stroke-width:2" />
  </g>
  <g
     id="g1425"
     transform="matrix(0.58208335,0,0,0.58208335,19.350007,23.335477)">
    <path
       id="path1421"
       d="m 210.5,90.5 c -16.569,0 -30,-13.431 -30,-30 0,-16.569 13.431,-30 30,-30 16.569,0 30,13.431 30,30 0,16.569 -13.431,30 -30,30 z"
       style="fill:#8fc7ed" />
    <path
       id="path1423"
       d="m 210.5,90.5 c -16.569,0 -30,-13.431 -30,-30 0,-16.569 13.431,-30 30,-30 16.569,0 30,13.431 30,30 0,16.569 -13.431,30 -30,30 z"
       style="fill-opacity:0;stroke:#294270;stroke-width:2" />
  </g>
  <g
     id="g1431"
     transform="matrix(0.58208335,0,0,0.58208335,19.350007,23.335477)">
    <path
       id="path1427"
       d="m 210.5,390.5 c -16.569,0 -30,-13.431 -30,-30 0,-16.569 13.431,-30 30,-30 16.569,0 30,13.431 30,30 0,16.569 -13.431,30 -30,30 z"
       style="fill:#faba00" />
    <path
       id="path1429"
       d="m 210.5,390.5 c -16.569,0 -30,-13.431 -30,-30 0,-16.569 13.431,-30 30,-30 16.569,0 30,13.431 30,30 0,16.569 -13.431,30 -30,30 z"
       style="fill-opacity:0;stroke:#294270;stroke-width:2" />
  </g>
  <g
     id="g1437"
     transform="matrix(0.58208335,0,0,0.58208335,19.350007,23.335477)">
    <path
       id="path1433"
       d="m 355.404,161.481 c -14.349,8.284 -32.697,3.368 -40.981,-10.981 -8.284,-14.349 -3.368,-32.696 10.981,-40.981 14.349,-8.284 32.696,-3.368 40.981,10.981 8.284,14.349 3.368,32.696 -10.981,40.981 z"
       style="fill:#faba00" />
    <path
       id="path1435"
       d="m 355.404,161.481 c -14.349,8.284 -32.697,3.368 -40.981,-10.981 -8.284,-14.349 -3.368,-32.696 10.981,-40.981 14.349,-8.284 32.696,-3.368 40.981,10.981 8.284,14.349 3.368,32.696 -10.981,40.981 z"
       style="fill-opacity:0;stroke:#294270;stroke-width:2" />
  </g>
  <g
     id="g1443"
     transform="matrix(0.58208335,0,0,0.58208335,19.350007,23.335477)">
    <path
       id="path1439"
       d="m 386.481,225.5 c -8.284,14.349 -26.632,19.265 -40.981,10.981 -14.349,-8.284 -19.265,-26.632 -10.981,-40.981 8.285,-14.349 26.632,-19.265 40.981,-10.981 14.349,8.285 19.265,26.632 10.981,40.981 z"
       style="fill:#faba00" />
    <path
       id="path1441"
       d="m 386.481,225.5 c -8.284,14.349 -26.632,19.265 -40.981,10.981 -14.349,-8.284 -19.265,-26.632 -10.981,-40.981 8.285,-14.349 26.632,-19.265 40.981,-10.981 14.349,8.285 19.265,26.632 10.981,40.981 z"
       style="fill-opacity:0;stroke:#294270;stroke-width:2" />
  </g>
  <g
     id="g1449"
     transform="matrix(0.58208335,0,0,0.58208335,19.350007,23.335477)">
    <path
       id="path1445"
       d="m 325.404,311.481 c -14.349,-8.284 -19.265,-26.632 -10.981,-40.981 8.284,-14.349 26.632,-19.265 40.981,-10.981 14.349,8.284 19.265,26.632 10.981,40.981 -8.285,14.349 -26.632,19.265 -40.981,10.981 z"
       style="fill:#8fc7ed" />
    <path
       id="path1447"
       d="m 325.404,311.481 c -14.349,-8.284 -19.265,-26.632 -10.981,-40.981 8.284,-14.349 26.632,-19.265 40.981,-10.981 14.349,8.284 19.265,26.632 10.981,40.981 -8.285,14.349 -26.632,19.265 -40.981,10.981 z"
       style="fill-opacity:0;stroke:#294270;stroke-width:2" />
  </g>
  <g
     id="g1455"
     transform="matrix(0.58208335,0,0,0.58208335,19.350007,23.335477)">
    <path
       id="path1451"
       d="m 259.519,355.404 c -8.284,-14.349 -3.368,-32.697 10.981,-40.981 14.349,-8.284 32.697,-3.368 40.981,10.981 8.284,14.349 3.368,32.696 -10.981,40.981 -14.349,8.284 -32.697,3.368 -40.981,-10.981 z"
       style="fill:#8fc7ed" />
    <path
       id="path1453"
       d="m 259.519,355.404 c -8.284,-14.349 -3.368,-32.697 10.981,-40.981 14.349,-8.284 32.697,-3.368 40.981,10.981 8.284,14.349 3.368,32.696 -10.981,40.981 -14.349,8.284 -32.697,3.368 -40.981,-10.981 z"
       style="fill-opacity:0;stroke:#294270;stroke-width:2" />
  </g>
  <g
     id="g1461"
     transform="matrix(0.58208335,0,0,0.58208335,19.350007,23.335477)">
    <path
       id="path1457"
       d="m 109.927,95.596 c 8.327,14.349 26.768,19.265 41.19,10.981 14.422,-8.284 19.364,-26.632 11.037,-40.981 -8.327,-14.349 -26.768,-19.265 -41.19,-10.981 -14.422,8.285 -19.363,26.632 -11.037,40.981 z"
       style="fill:#8fc7ed" />
    <path
       id="path1459"
       d="m 109.927,95.596 c 8.327,14.349 26.768,19.265 41.19,10.981 14.422,-8.284 19.364,-26.632 11.037,-40.981 -8.327,-14.349 -26.768,-19.265 -41.19,-10.981 -14.422,8.285 -19.363,26.632 -11.037,40.981 z"
       style="fill-opacity:0;stroke:#294270;stroke-width:2" />
  </g>
  <g
     id="g1467"
     transform="matrix(0.58208335,0,0,0.58208335,19.350007,23.335477)">
    <path
       id="path1463"
       d="m 65.78,161.481 c 14.422,8.284 32.864,3.368 41.19,-10.981 8.327,-14.349 3.385,-32.696 -11.037,-40.981 -14.422,-8.284 -32.863,-3.368 -41.19,10.981 -8.326,14.349 -3.385,32.696 11.037,40.981 z"
       style="fill:#faba00" />
    <path
       id="path1465"
       d="m 65.78,161.481 c 14.422,8.284 32.864,3.368 41.19,-10.981 8.327,-14.349 3.385,-32.696 -11.037,-40.981 -14.422,-8.284 -32.863,-3.368 -41.19,10.981 -8.326,14.349 -3.385,32.696 11.037,40.981 z"
       style="fill-opacity:0;stroke:#294270;stroke-width:2" />
  </g>
  <g
     id="g1473"
     transform="matrix(0.58208335,0,0,0.58208335,19.350007,23.335477)">
    <path
       id="path1469"
       d="m 95.933,311.481 c 14.422,-8.284 19.364,-26.632 11.037,-40.981 -8.326,-14.349 -26.768,-19.265 -41.19,-10.981 -14.422,8.284 -19.363,26.632 -11.037,40.981 8.327,14.349 26.768,19.265 41.19,10.981 z"
       style="fill:#faba00" />
    <path
       id="path1471"
       d="m 95.933,311.481 c 14.422,-8.284 19.364,-26.632 11.037,-40.981 -8.326,-14.349 -26.768,-19.265 -41.19,-10.981 -14.422,8.284 -19.363,26.632 -11.037,40.981 8.327,14.349 26.768,19.265 41.19,10.981 z"
       style="fill-opacity:0;stroke:#294270;stroke-width:2" />
  </g>
  <g
     id="g1479"
     transform="matrix(0.58208335,0,0,0.58208335,19.350007,23.335477)">
    <path
       id="path1475"
       d="m 162.154,355.404 c 8.327,-14.349 3.385,-32.697 -11.037,-40.981 -14.422,-8.284 -32.863,-3.368 -41.19,10.981 -8.326,14.349 -3.385,32.696 11.037,40.981 14.422,8.284 32.863,3.368 41.19,-10.981 z"
       style="fill:#8fc7ed" />
    <path
       id="path1477"
       d="m 162.154,355.404 c 8.327,-14.349 3.385,-32.697 -11.037,-40.981 -14.422,-8.284 -32.863,-3.368 -41.19,10.981 -8.326,14.349 -3.385,32.696 11.037,40.981 14.422,8.284 32.863,3.368 41.19,-10.981 z"
       style="fill-opacity:0;stroke:#294270;stroke-width:2" />
  </g>
  <text
     style="font-size:6.98500061px;stroke-width:0.58208334"
     id="text1651"
     x="185.24377"
     y="69.958023">
    <tspan
       id="tspan1649"
       font-size="36"
       y="77.81617"
       x="177.79483"
       style="font-size:20.95500183px;font-family:Verdana-Bold;fill:#294270;stroke-width:0.58208334">1</tspan>
  </text>
  <text
     style="font-size:6.98500061px;stroke-width:0.58208334"
     id="text1655"
     x="141.58751"
     y="58.417641">
    <tspan
       id="tspan1653"
       font-size="36"
       y="66.275772"
       x="134.13858"
       style="font-size:20.95500183px;font-family:Verdana-Bold;fill:#294270;stroke-width:0.58208334">0</tspan>
  </text>
  <text
     style="font-size:6.98500061px;stroke-width:0.58208334"
     id="text1659"
     x="217.20245"
     y="101.9179">
    <tspan
       id="tspan1657"
       font-size="36"
       y="109.77602"
       x="209.75354"
       style="font-size:20.95500183px;font-family:Verdana-Bold;fill:#294270;stroke-width:0.58208334">2</tspan>
  </text>
  <text
     style="font-size:6.98500061px;stroke-width:0.58208334"
     id="text1663"
     x="228.90002"
     y="145.64865">
    <tspan
       id="tspan1661"
       font-size="36"
       y="153.50681"
       x="221.45108"
       style="font-size:20.95500183px;font-family:Verdana-Bold;fill:#294270;stroke-width:0.58208334">3</tspan>
  </text>
  <text
     style="font-size:6.98500061px;stroke-width:0.58208334"
     id="text1667"
     x="217.20245"
     y="189.09886">
    <tspan
       id="tspan1665"
       font-size="36"
       y="196.95697"
       x="209.75354"
       style="font-size:20.95500183px;font-family:Verdana-Bold;fill:#294270;stroke-width:0.58208334">4</tspan>
  </text>
  <text
     style="font-size:6.98500061px;stroke-width:0.58208334"
     id="text1671"
     x="185.24377"
     y="220.91667">
    <tspan
       id="tspan1669"
       font-size="36"
       y="228.7748"
       x="177.79483"
       style="font-size:20.95500183px;font-family:Verdana-Bold;fill:#294270;stroke-width:0.58208334">5</tspan>
  </text>
  <text
     style="font-size:6.98500061px;stroke-width:0.58208334"
     id="text1675"
     x="141.58751"
     y="232.75511">
    <tspan
       id="tspan1673"
       font-size="36"
       y="240.61322"
       x="134.13858"
       style="font-size:20.95500183px;font-family:Verdana-Bold;fill:#294270;stroke-width:0.58208334">6</tspan>
  </text>
  <text
     style="font-size:6.98500061px;stroke-width:0.58208334"
     id="text1679"
     x="98.24617"
     y="221.18909">
    <tspan
       id="tspan1677"
       font-size="36"
       y="229.04724"
       x="90.797256"
       style="font-size:20.95500183px;font-family:Verdana-Bold;fill:#294270;stroke-width:0.58208334">7</tspan>
  </text>
  <text
     style="font-size:6.98500061px;stroke-width:0.58208334"
     id="text1683"
     x="66.124481"
     y="189.09886">
    <tspan
       id="tspan1681"
       font-size="36"
       y="196.95697"
       x="58.675556"
       style="font-size:20.95500183px;font-family:Verdana-Bold;fill:#294270;stroke-width:0.58208334">8</tspan>
  </text>
  <text
     style="font-size:6.98500061px;stroke-width:0.58208334"
     id="text1687"
     x="54.275005"
     y="145.64865">
    <tspan
       id="tspan1685"
       font-size="36"
       y="153.50681"
       x="46.826088"
       style="font-size:20.95500183px;font-family:Verdana-Bold;fill:#294270;stroke-width:0.58208334">9</tspan>
  </text>
  <text
     style="font-size:6.98500061px;stroke-width:0.58208334"
     id="text1691"
     x="66.124481"
     y="101.91676">
    <tspan
       id="tspan1689"
       font-size="36"
       y="109.77486"
       x="51.226639"
       style="font-size:20.95500183px;font-family:Verdana-Bold;fill:#294270;stroke-width:0.58208334">10</tspan>
  </text>
  <text
     style="font-size:6.98500061px;stroke-width:0.58208334"
     id="text1695"
     x="98.24617"
     y="69.958023">
    <tspan
       id="tspan1693"
       font-size="36"
       y="77.81617"
       x="83.34832"
       style="font-size:20.95500183px;font-family:Verdana-Bold;fill:#294270;stroke-width:0.58208334">11</tspan>
  </text>
</svg>
